<?xml version="1.0" encoding="UTF-8"?>
<!-- Created with Inkscape (http://www.inkscape.org/) -->
<svg id="svg824" width="578.39215" height="210.31346" version="1.1" viewBox="0 0 578.39215 210.31346" xml:space="preserve" xmlns="http://www.w3.org/2000/svg"><defs id="defs828"><clipPath id="clipPath838"><path id="path836" d="M 0,205.2 H 435.6 V 0 H 0 Z"/></clipPath></defs><g id="g830" transform="matrix(1.3333333,0,0,-1.3333333,-1.204,272.22453)"><g id="g832"><g id="g834" clip-path="url(#clipPath838)"><g id="g840" transform="translate(227.5732,78.4014)"><path id="path842" d="m0 0 16.261 108.896c1.103 6.554 0.517 16.178-10.499 16.87l-16.465 1e-3 -18.832-125.767h29.535" fill="#231f20" fill-rule="evenodd"/></g><g id="g844" transform="translate(187.9741,78.4014)"><path id="path846" d="m0 0 12.246 82.252h-29.278l-8.071-54.337h-19.603c-3.965 6e-3 -7.334 2.563-6.542 7.454l4.477 29.855c0.924 6.078 1.453 16.974-8.603 17.028h-18.568l-8.145-54.405c-2.466-18.192 7.07-27.847 19.118-27.847h62.969" fill="#231f20" fill-rule="evenodd"/></g><g id="g848" transform="translate(427.0391,85.2871)"><path id="path850" d="m0 0v1.882h1.671c0.791 0 0.937-0.541 0.937-0.921 0-0.698-0.344-0.961-1.033-0.961zm-1.313-3.955h1.313v2.766h1.384c0.989 0 1.045-0.377 1.045-1.334 0-0.731 0.054-1.093 0.139-1.432h1.483v0.191c-0.277 0.119-0.277 0.377-0.277 1.405 0 1.316-0.298 1.536-0.823 1.793 0.645 0.226 0.988 0.907 0.988 1.673 0 0.609-0.305 2.002-2.015 2.002h-3.237zm2.7-2.154c-2.953-0.016-5.341 2.527-5.354 5.668-0.012 3.13 2.363 5.693 5.325 5.704 2.946 0.012 5.341-2.534 5.361-5.67 0-3.136-2.375-5.695-5.332-5.702m0-1.052c3.479 0.015 6.283 3.045 6.271 6.766-0.012 3.711-2.834 6.727-6.304 6.704-3.474-0.011-6.284-3.03-6.264-6.759 0.014-3.716 2.826-6.722 6.297-6.711" fill="#231f20" fill-rule="evenodd"/></g><g id="g852" transform="translate(38.207,106.3813)"><path id="path854" d="m0 0h23.254v8e-3c5.694 0 11.014 4.703 11.769 10.396l1.035 6.914c1.288 6.938-3.249 11.163-8.943 11.163h-22.849zm-4.188-27.98-4.771-31.968c-0.311 0.106-28.345 0-28.345 0l17.047 114.22h54.888c18.691 0 31.833-15.081 29.358-33.772l-2.135-14.314c-2.479-18.692-19.937-34.166-38.628-34.166z" fill="#231f20" fill-rule="evenodd"/></g><g id="g856" transform="translate(399.1934,131.3711)"><path id="path858" d="m0 0 0.449 3.248c0.375 2.703-1.512 4.897-4.217 4.897h-22.698c-2.705 0-5.198-2.194-5.572-4.897l-0.45-3.248zm-47.586-52.97c-11.202 0-19.814 9.095-18.291 20.296l6.127 41.102c1.525 11.203 12.158 20.855 23.359 20.855h46.511c11.346 0 19.288-9.652 17.764-20.855l-4.152-27.783h-59.079l-1.216-8.157 48.042-5e-3c7.437 0.07 9.913-6.731 8.957-13.956l-1.719-11.497h-66.303" fill="#231f20"/></g><g id="g860" transform="translate(39.9033,46.4336)"><path id="path862" d="m0 0 3 21h373.396l-1.75-12.25c-0.939-5.953-4-8.75-8.797-8.75h-365.849" fill="#ee7623"/></g><g id="g864" transform="translate(267.9521,160.6538)"><path id="path866" d="m0 0c-10.514 0-19.104-9.273-20.776-20.444l-1.532-10.242c-1.425-10.808 4.408-19.894 14.419-20.442 0.32-0.018 0.639-0.026 0.963-0.026h36.07l-0.912-5.677h-40.653c-7.296-0.023-14.413-0.736-15.334-8.097l-2.662-17.324h65.413c10.78 0 20.825 7.159 22.299 18.311l2.11 14.056c1.471 11.154-6.209 20.471-16.989 20.471h-37.522l0.693 5.298h42.855c10.795 0 14.156 1.327 15.628 9.354l2.206 14.762z" fill="#231f20"/></g></g></g></g></svg>
